<svg width="300" height="61" viewBox="0 0 300 61" fill="none" xmlns="http://www.w3.org/2000/svg">
<path d="M29.1106 60.998H29.0389C12.9883 60.9602 -0.0377496 47.8911 8.21983e-05 31.8658C0.0180025 24.1026 3.06446 16.8126 8.57395 11.3356C14.0695 5.87854 21.3571 2.87466 29.1066 2.87466C29.1305 2.87466 29.1544 2.87466 29.1783 2.87466C29.708 2.87466 30.1361 3.30606 30.1361 3.83487C30.1361 4.36368 29.706 4.7911 29.1763 4.7911C29.1564 4.7911 29.1305 4.7911 29.1066 4.7911C21.8688 4.7911 15.0611 7.59618 9.92992 12.6954C4.78281 17.8106 1.93747 24.6195 1.92154 31.8717C1.8857 46.8394 14.0536 59.0478 29.0449 59.0836H29.1126C36.3504 59.0836 43.1582 56.2785 48.2893 51.1792C53.4365 46.0641 56.2818 39.2532 56.2977 32.0029C56.3097 27.2218 55.0493 22.5062 52.6559 18.3652C52.3911 17.908 52.5484 17.3215 53.0064 17.0571C53.4663 16.7907 54.0517 16.9497 54.3165 17.407C56.8791 21.8402 58.2291 26.8878 58.2152 32.0069C58.1973 39.7701 55.1508 47.0601 49.6413 52.5371C44.1478 57.9961 36.8582 61 29.1106 61V60.998Z" fill="#6366F1"/>
<path d="M29.1743 7.66575C31.2945 7.66575 33.0133 5.94972 33.0133 3.83288C33.0133 1.71604 31.2945 0 29.1743 0C27.0542 0 25.3354 1.71604 25.3354 3.83288C25.3354 5.94972 27.0542 7.66575 29.1743 7.66575Z" fill="#22D3EE"/>
<path d="M28.7423 18.0332L18.0458 45.4677C17.8865 45.8772 18.3465 46.251 18.7149 46.0104L28.8896 39.3904C29.025 39.3029 29.1982 39.3029 29.3336 39.3904L39.5004 46.0224C39.8688 46.2629 40.3288 45.8892 40.1695 45.4796L29.5049 18.0332C29.3695 17.6853 28.8777 17.6853 28.7423 18.0332ZM29.9907 23.0549L37.4217 42.1776C37.5133 42.4161 37.2465 42.6308 37.0334 42.4917L29.9947 37.9013C29.7259 37.7264 29.5646 37.4282 29.5666 37.1101L29.5746 23.1344C29.5746 22.8959 29.9051 22.8342 29.9927 23.0569L29.9907 23.0549Z" fill="#6366F1"/>
<path d="M78.1525 28.5438L84.2793 7.13098H90.0994L96.1963 28.5438H92.7954L91.3857 23.4963H82.991L81.5813 28.5438H78.1505H78.1525ZM83.8213 20.4367H90.5614L87.4372 9.18061H86.9474L83.8233 20.4367H83.8213Z" fill="#E2E8F0"/>
<path d="M105.451 28.9712C104.205 28.9712 103.052 28.6651 101.989 28.0528C100.925 27.4405 100.073 26.5598 99.4299 25.4067C98.7868 24.2557 98.4642 22.8621 98.4642 21.2319V20.7727C98.4642 19.1624 98.7808 17.7748 99.414 16.6118C100.047 15.4488 100.895 14.5621 101.957 13.9498C103.018 13.3375 104.183 13.0314 105.449 13.0314C106.429 13.0314 107.251 13.1546 107.916 13.3992C108.579 13.6437 109.127 13.9538 109.555 14.3315C109.985 14.7093 110.31 15.1009 110.537 15.5104H111.026V7.12899H114.182V28.5418H111.088V26.4007H110.598C110.21 27.0528 109.623 27.6452 108.836 28.174C108.05 28.7048 106.921 28.9692 105.451 28.9692V28.9712ZM106.339 26.2178C107.707 26.2178 108.836 25.7785 109.724 24.9018C110.612 24.0251 111.056 22.7706 111.056 21.1405V20.8641C111.056 19.2538 110.616 18.0093 109.738 17.1326C108.86 16.2559 107.725 15.8166 106.337 15.8166C104.949 15.8166 103.87 16.2559 102.982 17.1326C102.094 18.0093 101.65 19.2538 101.65 20.8641V21.1405C101.65 22.7726 102.094 24.027 102.982 24.9018C103.87 25.7785 104.989 26.2178 106.337 26.2178H106.339Z" fill="#E2E8F0"/>
<path d="M125.763 28.9712C124.232 28.9712 122.894 28.6492 121.749 28.007C120.604 27.3649 119.712 26.4584 119.069 25.2855C118.425 24.1125 118.103 22.7508 118.103 21.2021V20.8363C118.103 19.2658 118.419 17.8941 119.053 16.7211C119.686 15.5482 120.57 14.6417 121.703 13.9995C122.836 13.3574 124.148 13.0354 125.639 13.0354C127.131 13.0354 128.361 13.3574 129.454 13.9995C130.548 14.6417 131.4 15.5343 132.013 16.6774C132.626 17.8205 132.933 19.1544 132.933 20.6852V21.878H121.321C121.36 23.204 121.806 24.2596 122.653 25.0449C123.501 25.8302 124.556 26.2238 125.825 26.2238C127.009 26.2238 127.903 25.9594 128.507 25.4286C129.108 24.8978 129.574 24.2875 129.9 23.5937L132.505 24.9395C132.218 25.5101 131.806 26.1125 131.264 26.7447C130.723 27.3768 130.014 27.9076 129.136 28.3351C128.258 28.7625 127.133 28.9772 125.765 28.9772L125.763 28.9712ZM121.35 19.4586H129.715C129.634 18.3175 129.225 17.4249 128.491 16.7828C127.756 16.1406 126.794 15.8186 125.61 15.8186C124.425 15.8186 123.459 16.1406 122.714 16.7828C121.968 17.4249 121.514 18.3175 121.35 19.4586Z" fill="#E2E8F0"/>
<path d="M136.732 28.5438V13.4628H139.826V15.2361H140.316C140.601 14.7053 141.061 14.2381 141.694 13.8286C142.327 13.421 143.185 13.2163 144.267 13.2163C145.348 13.2163 146.294 13.4449 146.978 13.9041C147.663 14.3633 148.179 14.9498 148.526 15.6635H149.015C149.362 14.9697 149.868 14.3892 150.533 13.92C151.196 13.4508 152.142 13.2163 153.366 13.2163C154.346 13.2163 155.214 13.4151 155.97 13.8127C156.725 14.2103 157.328 14.8027 157.778 15.586C158.228 16.3712 158.453 17.3454 158.453 18.5063V28.5398H155.297V18.7509C155.297 17.8324 155.047 17.1247 154.547 16.6257C154.047 16.1267 153.336 15.8762 152.418 15.8762C151.439 15.8762 150.652 16.1923 150.059 16.8245C149.465 17.4567 149.171 18.3652 149.171 19.5461V28.5398H146.015V18.7509C146.015 17.8324 145.764 17.1247 145.264 16.6257C144.764 16.1267 144.053 15.8762 143.134 15.8762C142.154 15.8762 141.367 16.1923 140.774 16.8245C140.181 17.4567 139.886 18.3652 139.886 19.5461V28.5398H136.73L136.732 28.5438Z" fill="#E2E8F0"/>
<path d="M164.582 11.4131C163.969 11.4131 163.453 11.2143 163.035 10.8167C162.617 10.4191 162.406 9.90425 162.406 9.27206C162.406 8.63987 162.615 8.12498 163.035 7.72738C163.453 7.32978 163.969 7.13098 164.582 7.13098C165.195 7.13098 165.737 7.32978 166.145 7.72738C166.553 8.12498 166.759 8.63987 166.759 9.27206C166.759 9.90425 166.553 10.4191 166.145 10.8167C165.737 11.2143 165.215 11.4131 164.582 11.4131ZM162.989 28.5438V13.4628H166.145V28.5438H162.989Z" fill="#E2E8F0"/>
<path d="M170.83 28.5438V13.4628H173.925V15.2361H174.414C174.659 14.6039 175.052 14.1407 175.593 13.8445C176.135 13.5483 176.804 13.4011 177.6 13.4011H179.408V16.246H177.479C176.457 16.246 175.619 16.5263 174.966 17.0869C174.313 17.6475 173.984 18.5083 173.984 19.6713V28.5418H170.828L170.83 28.5438Z" fill="#E2E8F0"/>
<path d="M190.409 28.5438V7.13098H198.927C200.234 7.13098 201.404 7.39141 202.436 7.91028C203.467 8.43113 204.274 9.16471 204.857 10.113C205.439 11.0613 205.729 12.1984 205.729 13.5244V13.922C205.729 15.248 205.427 16.3891 204.825 17.3473C204.222 18.3056 203.412 19.0391 202.39 19.5501C201.369 20.059 200.214 20.3154 198.927 20.3154H193.719V28.5438H190.409ZM193.719 17.3175H198.591C199.756 17.3175 200.684 17.0114 201.379 16.3991C202.073 15.7868 202.42 14.9518 202.42 13.8902V13.584C202.42 12.5026 202.071 11.6577 201.379 11.0454C200.684 10.4331 199.754 10.1269 198.591 10.1269H193.719V17.3155V17.3175Z" fill="#E2E8F0"/>
<path d="M213.296 28.9712C212.212 28.9712 211.247 28.7883 210.4 28.4205C209.552 28.0528 208.879 27.514 208.377 26.8003C207.878 26.0866 207.627 25.2199 207.627 24.2C207.627 23.1802 207.876 22.2995 208.377 21.6156C208.877 20.9317 209.562 20.4168 210.43 20.0709C211.298 19.725 212.284 19.5501 213.387 19.5501H217.983V18.572C217.983 17.6952 217.718 16.9915 217.186 16.4607C216.655 15.9299 215.838 15.6655 214.735 15.6655C213.632 15.6655 212.826 15.92 212.254 16.4309C211.683 16.9398 211.304 17.6038 211.121 18.4189L208.18 17.4706C208.425 16.6555 208.819 15.916 209.361 15.252C209.903 14.59 210.621 14.0532 211.521 13.6457C212.419 13.2381 213.503 13.0334 214.769 13.0334C216.73 13.0334 218.271 13.5324 219.394 14.5323C220.517 15.5323 221.079 16.9478 221.079 18.7847V24.9952C221.079 25.6075 221.364 25.9117 221.937 25.9117H223.223V28.5418H220.864C220.149 28.5418 219.566 28.3589 219.118 27.9911C218.668 27.6234 218.443 27.1244 218.443 26.4922V26.4007H217.983C217.819 26.7069 217.575 27.0647 217.248 27.4723C216.921 27.8798 216.44 28.2317 215.808 28.5279C215.175 28.8241 214.337 28.9712 213.296 28.9712ZM213.756 26.3709C215.022 26.3709 216.043 26.0091 216.82 25.2855C217.596 24.5618 217.985 23.5678 217.985 22.3034V21.9973H213.572C212.734 21.9973 212.061 22.1762 211.549 22.5321C211.04 22.8899 210.783 23.4147 210.783 24.1066C210.783 24.7984 211.048 25.3511 211.579 25.7586C212.111 26.1661 212.836 26.3709 213.756 26.3709Z" fill="#E2E8F0"/>
<path d="M231.035 28.5438C230.115 28.5438 229.384 28.2675 228.844 27.7168C228.303 27.1661 228.032 26.4325 228.032 25.5141V16.1227H223.865V13.4608H228.032V8.47487H231.188V13.4608H235.692V16.1227H231.188V24.9634C231.188 25.5757 231.473 25.8819 232.046 25.8819H235.202V28.5438H231.035Z" fill="#E2E8F0"/>
<path d="M239.398 28.5438V13.4628H242.492V15.2361H242.982C243.226 14.6039 243.619 14.1407 244.16 13.8445C244.702 13.5483 245.371 13.4011 246.167 13.4011H247.975V16.246H246.046C245.024 16.246 244.186 16.5263 243.533 17.0869C242.88 17.6475 242.551 18.5083 242.551 19.6713V28.5418H239.396L239.398 28.5438Z" fill="#E2E8F0"/>
<path d="M250.857 11.6259L253.154 7.25224H256.8L253.706 11.6259H250.857ZM251.255 28.5418V13.4608H254.411V28.5418H251.255Z" fill="#E2E8F0"/>
<path d="M266.115 28.9712C264.663 28.9712 263.353 28.6651 262.178 28.0528C261.003 27.4405 260.074 26.5538 259.391 25.3908C258.706 24.2278 258.365 22.8323 258.365 21.2001V20.8025C258.365 19.1703 258.708 17.7787 259.391 16.6277C260.076 15.4766 261.003 14.588 262.178 13.9657C263.353 13.3435 264.665 13.0334 266.115 13.0334C267.564 13.0334 268.801 13.2978 269.822 13.8286C270.844 14.3594 271.666 15.0631 272.289 15.9398C272.912 16.8165 273.315 17.7867 273.5 18.8463L270.435 19.4884C270.332 18.8145 270.119 18.2042 269.792 17.6535C269.466 17.1028 269.006 16.6635 268.414 16.3374C267.821 16.0114 267.076 15.8484 266.178 15.8484C265.28 15.8484 264.508 16.0472 263.805 16.4448C263.1 16.8424 262.543 17.4129 262.134 18.1585C261.726 18.904 261.521 19.8065 261.521 20.8661V21.1424C261.521 22.2021 261.724 23.1106 262.134 23.864C262.543 24.6195 263.1 25.19 263.805 25.5777C264.51 25.9654 265.3 26.1582 266.178 26.1582C267.506 26.1582 268.518 25.8163 269.213 25.1344C269.908 24.4505 270.346 23.5797 270.531 22.5201L273.595 23.2239C273.35 24.2636 272.916 25.2238 272.293 26.1005C271.67 26.9772 270.848 27.675 269.826 28.1959C268.805 28.7168 267.568 28.9752 266.119 28.9752L266.115 28.9712Z" fill="#E2E8F0"/>
<path d="M278.828 11.4131C278.215 11.4131 277.699 11.2143 277.281 10.8167C276.863 10.4191 276.652 9.90425 276.652 9.27206C276.652 8.63987 276.861 8.12498 277.281 7.72738C277.699 7.32978 278.215 7.13098 278.828 7.13098C279.441 7.13098 279.983 7.32978 280.391 7.72738C280.799 8.12498 281.004 8.63987 281.004 9.27206C281.004 9.90425 280.799 10.4191 280.391 10.8167C279.983 11.2143 279.461 11.4131 278.828 11.4131ZM277.235 28.5438V13.4628H280.391V28.5438H277.235Z" fill="#E2E8F0"/>
<path d="M292.157 28.9712C290.646 28.9712 289.302 28.6591 288.129 28.0388C286.954 27.4166 286.03 26.524 285.357 25.363C284.682 24.2 284.346 22.8243 284.346 21.2339V20.7747C284.346 19.1843 284.682 17.8125 285.357 16.6615C286.032 15.5084 286.954 14.6178 288.129 13.9836C289.304 13.3515 290.646 13.0354 292.157 13.0354C293.668 13.0354 295.016 13.3515 296.201 13.9836C297.386 14.6158 298.316 15.5084 298.989 16.6615C299.664 17.8145 300 19.1843 300 20.7747V21.2339C300 22.8243 299.664 24.202 298.989 25.363C298.314 26.526 297.386 27.4186 296.201 28.0388C295.016 28.6611 293.668 28.9712 292.157 28.9712ZM292.157 26.1562C293.545 26.1562 294.674 25.7129 295.542 24.8262C296.41 23.9396 296.844 22.711 296.844 21.1405V20.8641C296.844 19.2936 296.416 18.065 295.558 17.1784C294.7 16.2917 293.567 15.8484 292.157 15.8484C290.747 15.8484 289.67 16.2917 288.802 17.1784C287.934 18.065 287.5 19.2936 287.5 20.8641V21.1405C287.5 22.711 287.934 23.9396 288.802 24.8262C289.67 25.7129 290.789 26.1562 292.157 26.1562Z" fill="#E2E8F0"/>
<path d="M81.9218 51.879C81.1771 51.879 80.52 51.7279 79.9545 51.4238C79.387 51.1216 78.945 50.7041 78.6284 50.1733C78.3118 49.6425 78.1525 49.0402 78.1525 48.3682V41.8356H79.0963V48.3006C79.0963 48.8175 79.2138 49.2807 79.4488 49.6882C79.6837 50.0958 80.0123 50.4159 80.4364 50.6504C80.8585 50.885 81.3543 51.0023 81.9218 51.0023C82.4892 51.0023 82.985 50.885 83.4072 50.6504C83.8293 50.4159 84.1578 50.0958 84.3908 49.6882C84.6237 49.2807 84.7392 48.8195 84.7392 48.3006V41.8356H85.683V48.3682C85.683 49.0421 85.5237 49.6425 85.2072 50.1733C84.8906 50.7041 84.4485 51.1216 83.883 51.4238C83.3176 51.726 82.6625 51.879 81.9178 51.879H81.9218Z" fill="#6366F1"/>
<path d="M90.2049 41.8356V51.726H89.2611V41.8356H90.2049Z" fill="#6366F1"/>
<path d="M101.781 41.3704L98.5897 53.213H97.7454L100.937 41.3704H101.781Z" fill="#6366F1"/>
<path d="M113.019 51.879C112.275 51.879 111.618 51.7279 111.052 51.4238C110.485 51.1216 110.043 50.7041 109.726 50.1733C109.41 49.6425 109.25 49.0402 109.25 48.3682V41.8356H110.194V48.3006C110.194 48.8175 110.312 49.2807 110.546 49.6882C110.781 50.0958 111.11 50.4159 111.534 50.6504C111.956 50.885 112.452 51.0023 113.019 51.0023C113.587 51.0023 114.083 50.885 114.505 50.6504C114.927 50.4159 115.256 50.0958 115.489 49.6882C115.721 49.2807 115.837 48.8195 115.837 48.3006V41.8356H116.781V48.3682C116.781 49.0421 116.621 49.6425 116.305 50.1733C115.988 50.7041 115.546 51.1216 114.981 51.4238C114.415 51.726 113.76 51.879 113.016 51.879H113.019Z" fill="#6366F1"/>
<path d="M119.447 51.726L123.256 46.3285V47.0263L119.626 41.8356H120.729L122.418 44.265C122.603 44.5314 122.764 44.7639 122.896 44.9647C123.029 45.1655 123.154 45.3663 123.274 45.5631C123.393 45.7599 123.521 45.9866 123.652 46.243H123.459C123.596 45.9906 123.724 45.7659 123.841 45.5691C123.959 45.3723 124.086 45.1715 124.224 44.9687C124.361 44.7659 124.52 44.5314 124.702 44.265L126.418 41.8356H127.495L123.871 46.9945V46.2967L127.654 51.726H126.557L124.616 48.9586C124.447 48.7161 124.299 48.4994 124.174 48.3086C124.048 48.1177 123.927 47.9289 123.811 47.738C123.696 47.5472 123.573 47.3305 123.439 47.0879H123.666C123.537 47.3225 123.415 47.5352 123.298 47.7261C123.18 47.9169 123.059 48.1078 122.931 48.3006C122.804 48.4935 122.655 48.7141 122.483 48.9606L120.528 51.7279H119.445L119.447 51.726Z" fill="#6366F1"/>
<path d="M137.757 49.6147C137.421 49.6147 137.114 49.5312 136.838 49.3662C136.561 49.2012 136.34 48.9785 136.173 48.6982C136.005 48.4179 135.924 48.1137 135.924 47.7817C135.924 47.4497 136.007 47.1337 136.173 46.8593C136.338 46.585 136.561 46.3643 136.842 46.1993C137.122 46.0343 137.427 45.9508 137.759 45.9508C138.092 45.9508 138.409 46.0343 138.683 46.1993C138.958 46.3643 139.179 46.587 139.344 46.8633C139.51 47.1396 139.593 47.4458 139.593 47.7817C139.593 48.1177 139.51 48.4239 139.344 48.7002C139.179 48.9765 138.956 49.1972 138.679 49.3642C138.403 49.5292 138.096 49.6127 137.759 49.6127L137.757 49.6147Z" fill="#6366F1"/>
<path d="M148.771 51.726V41.8356H152.002C152.703 41.8356 153.29 41.9708 153.764 42.2412C154.238 42.5115 154.597 42.8773 154.838 43.3366C155.078 43.7978 155.2 44.3166 155.2 44.8971C155.2 45.4776 155.078 45.9985 154.838 46.4637C154.597 46.9289 154.238 47.2967 153.766 47.5651C153.294 47.8354 152.707 47.9706 152.008 47.9706H149.487V47.1277H151.968C152.482 47.1277 152.908 47.0323 153.249 46.8394C153.587 46.6466 153.842 46.3822 154.009 46.0462C154.178 45.7102 154.262 45.3266 154.262 44.8971C154.262 44.4677 154.178 44.092 154.009 43.756C153.84 43.4201 153.585 43.1557 153.245 42.9668C152.902 42.7759 152.476 42.6805 151.962 42.6805H149.714V51.7279H148.771V51.726Z" fill="#6366F1"/>
<path d="M158.169 51.7259V44.3047H159.047V45.4597H159.113C159.264 45.08 159.521 44.7759 159.887 44.5473C160.253 44.3186 160.668 44.2053 161.134 44.2053C161.209 44.2053 161.289 44.2053 161.372 44.2093C161.456 44.2113 161.53 44.2153 161.591 44.2192V45.1218C161.56 45.1138 161.494 45.1039 161.392 45.092C161.291 45.082 161.179 45.0761 161.06 45.0761C160.678 45.0761 160.337 45.1576 160.036 45.3226C159.734 45.4856 159.499 45.7102 159.328 45.9925C159.156 46.2768 159.071 46.6009 159.071 46.9686V51.7279H158.167L158.169 51.7259Z" fill="#6366F1"/>
<path d="M166.757 51.885C166.109 51.885 165.54 51.722 165.048 51.3979C164.556 51.0739 164.17 50.6206 163.891 50.0441C163.613 49.4656 163.473 48.8036 163.473 48.0561C163.473 47.3086 163.613 46.6247 163.891 46.0482C164.17 45.4697 164.556 45.0184 165.048 44.6944C165.54 44.3703 166.109 44.2073 166.757 44.2073C167.404 44.2073 167.967 44.3703 168.463 44.6944C168.957 45.0204 169.343 45.4717 169.624 46.0482C169.903 46.6267 170.042 47.2947 170.042 48.0561C170.042 48.8175 169.903 49.4676 169.626 50.0441C169.349 50.6226 168.963 51.0739 168.469 51.3979C167.975 51.724 167.404 51.885 166.757 51.885ZM166.757 51.0679C167.266 51.0679 167.698 50.9307 168.053 50.6564C168.407 50.3821 168.676 50.0163 168.861 49.561C169.044 49.1058 169.138 48.6028 169.138 48.0541C169.138 47.5054 169.044 46.9945 168.859 46.5372C168.674 46.08 168.403 45.7122 168.049 45.4359C167.694 45.1596 167.264 45.0204 166.759 45.0204C166.253 45.0204 165.825 45.1596 165.472 45.4359C165.12 45.7122 164.851 46.08 164.664 46.5372C164.477 46.9945 164.385 47.5014 164.385 48.0541C164.385 48.6068 164.477 49.1058 164.662 49.561C164.845 50.0163 165.114 50.3821 165.466 50.6564C165.819 50.9307 166.249 51.0679 166.759 51.0679H166.757Z" fill="#6366F1"/>
<path d="M175.609 51.885C175.006 51.885 174.476 51.724 174.016 51.4039C173.558 51.0838 173.2 50.6345 172.945 50.056C172.69 49.4775 172.563 48.8056 172.563 48.0342C172.563 47.2629 172.69 46.5989 172.949 46.0223C173.206 45.4478 173.564 45.0005 174.022 44.6804C174.48 44.3604 175.012 44.2033 175.615 44.2033C176.067 44.2033 176.443 44.2848 176.746 44.4459C177.047 44.6069 177.29 44.8057 177.475 45.0403C177.658 45.2749 177.799 45.5055 177.897 45.7301H177.971V41.8336H178.869V51.724H177.999V50.3363H177.899C177.801 50.5669 177.66 50.8015 177.473 51.0401C177.286 51.2786 177.043 51.4794 176.742 51.6405C176.44 51.8015 176.063 51.883 175.611 51.883L175.609 51.885ZM175.729 51.0679C176.207 51.0679 176.615 50.9367 176.949 50.6763C177.284 50.4158 177.539 50.056 177.714 49.5968C177.889 49.1395 177.977 48.6147 177.977 48.0263C177.977 47.4378 177.889 46.917 177.714 46.4657C177.539 46.0144 177.284 45.6605 176.949 45.4041C176.615 45.1476 176.209 45.0184 175.729 45.0184C175.249 45.0184 174.835 45.1516 174.498 45.416C174.162 45.6824 173.907 46.0422 173.734 46.4955C173.56 46.9488 173.475 47.4597 173.475 48.0263C173.475 48.5928 173.562 49.1057 173.738 49.567C173.913 50.0282 174.168 50.392 174.506 50.6624C174.843 50.9327 175.251 51.0679 175.729 51.0679Z" fill="#6366F1"/>
<path d="M184.717 51.8253C184.215 51.8253 183.773 51.72 183.391 51.5093C183.006 51.2985 182.708 50.9924 182.493 50.5868C182.278 50.1813 182.17 49.6882 182.17 49.1038V44.3047H183.074V49.0382C183.074 49.6445 183.245 50.1236 183.586 50.4755C183.926 50.8274 184.384 51.0023 184.956 51.0023C185.346 51.0023 185.696 50.9188 186.007 50.7538C186.318 50.5888 186.562 50.3483 186.742 50.0361C186.921 49.724 187.01 49.3562 187.01 48.9308V44.3047H187.914V51.7259H187.036V49.9924H187.17C186.967 50.6484 186.644 51.1176 186.206 51.3999C185.768 51.6842 185.27 51.8253 184.717 51.8253Z" fill="#6366F1"/>
<path d="M194.109 51.8651C193.462 51.8651 192.892 51.7041 192.401 51.38C191.909 51.058 191.522 50.6087 191.244 50.0322C190.965 49.4576 190.826 48.7956 190.826 48.0481C190.826 47.3006 190.965 46.6168 191.244 46.0402C191.522 45.4617 191.909 45.0124 192.401 44.6884C192.892 44.3663 193.462 44.2033 194.109 44.2033C194.485 44.2033 194.832 44.259 195.146 44.3683C195.461 44.4797 195.74 44.6268 195.985 44.8097C196.227 44.9926 196.431 45.1973 196.594 45.42C196.755 45.6426 196.875 45.8673 196.95 46.0939L196.092 46.3603C196.052 46.2231 195.979 46.078 195.873 45.9229C195.768 45.7679 195.63 45.6228 195.465 45.4856C195.3 45.3484 195.102 45.2371 194.875 45.1496C194.649 45.0621 194.394 45.0204 194.111 45.0204C193.605 45.0204 193.177 45.1576 192.825 45.4319C192.472 45.7063 192.203 46.072 192.016 46.5273C191.831 46.9826 191.737 47.4895 191.737 48.0481C191.737 48.6068 191.831 49.0998 192.016 49.555C192.201 50.0103 192.472 50.3741 192.825 50.6465C193.177 50.9188 193.605 51.054 194.111 51.054C194.4 51.054 194.658 51.0103 194.889 50.9208C195.12 50.8333 195.32 50.718 195.491 50.5789C195.662 50.4397 195.799 50.2886 195.907 50.1276C196.012 49.9666 196.086 49.8155 196.126 49.6723L196.976 49.9387C196.904 50.1693 196.787 50.396 196.624 50.6226C196.46 50.8492 196.253 51.056 196.004 51.2429C195.756 51.4317 195.473 51.5808 195.154 51.6941C194.836 51.8074 194.487 51.8631 194.111 51.8631L194.109 51.8651Z" fill="#6366F1"/>
<path d="M202.356 44.3047V45.088H198.82V44.3047H202.356ZM199.923 42.5394H200.827V49.9745C200.827 50.3423 200.909 50.6127 201.074 50.7836C201.237 50.9566 201.488 51.0242 201.825 50.9904C201.886 50.9904 201.962 50.9824 202.054 50.9665C202.143 50.9506 202.229 50.9347 202.31 50.9168L202.496 51.6941C202.398 51.7259 202.291 51.7498 202.173 51.7677C202.056 51.7856 201.936 51.7955 201.817 51.8015C201.223 51.8412 200.757 51.7001 200.423 51.38C200.088 51.06 199.921 50.6107 199.921 50.0361V42.5413L199.923 42.5394Z" fill="#6366F1"/>
<path d="M212.471 49.6147C212.135 49.6147 211.828 49.5312 211.551 49.3662C211.275 49.2012 211.054 48.9785 210.886 48.6982C210.719 48.4179 210.637 48.1137 210.637 47.7817C210.637 47.4497 210.721 47.1337 210.886 46.8593C211.052 46.585 211.275 46.3643 211.555 46.1993C211.836 46.0343 212.141 45.9508 212.473 45.9508C212.806 45.9508 213.122 46.0343 213.397 46.1993C213.672 46.3643 213.893 46.587 214.058 46.8633C214.223 47.1396 214.307 47.4458 214.307 47.7817C214.307 48.1177 214.223 48.4239 214.058 48.7002C213.893 48.9765 213.67 49.1972 213.393 49.3642C213.116 49.5292 212.81 49.6127 212.473 49.6127L212.471 49.6147Z" fill="#6366F1"/>
<path d="M224.428 41.8356V51.7259H223.484V41.8356H224.428ZM226.409 51.7259H224.002V50.883H226.355C227.202 50.883 227.909 50.718 228.474 50.388C229.04 50.058 229.466 49.5849 229.75 48.9666C230.037 48.3483 230.178 47.6108 230.178 46.752C230.178 45.8931 230.039 45.1755 229.76 44.5671C229.482 43.9608 229.071 43.4936 228.53 43.1656C227.988 42.8376 227.319 42.6746 226.523 42.6746H223.97V41.8316H226.582C227.53 41.8316 228.341 42.0284 229.012 42.4221C229.683 42.8157 230.198 43.3803 230.557 44.1139C230.915 44.8494 231.094 45.7261 231.094 46.75C231.094 47.7738 230.911 48.6803 230.547 49.4218C230.18 50.1634 229.649 50.7319 228.952 51.1276C228.253 51.5232 227.407 51.722 226.409 51.722V51.7259Z" fill="#6366F1"/>
<path d="M237.138 51.885C236.441 51.885 235.839 51.722 235.332 51.3979C234.824 51.0719 234.432 50.6226 234.155 50.0461C233.878 49.4715 233.739 48.8095 233.739 48.062C233.739 47.3146 233.874 46.6506 234.147 46.0701C234.42 45.4896 234.8 45.0343 235.29 44.7023C235.78 44.3703 236.347 44.2053 236.996 44.2053C237.404 44.2053 237.797 44.2789 238.173 44.428C238.549 44.5771 238.888 44.8017 239.19 45.1059C239.491 45.41 239.728 45.7937 239.901 46.2569C240.074 46.7221 240.16 47.2688 240.16 47.897V48.2887H234.33V47.5114H239.676L239.264 47.8036C239.264 47.2728 239.172 46.7977 238.991 46.3762C238.81 45.9567 238.549 45.6248 238.213 45.3802C237.876 45.1377 237.47 45.0144 236.996 45.0144C236.522 45.0144 236.116 45.1377 235.764 45.3862C235.411 45.6347 235.136 45.9607 234.939 46.3683C234.742 46.7758 234.643 47.2231 234.643 47.7102V48.1754C234.643 48.7559 234.744 49.2628 234.949 49.6982C235.152 50.1336 235.443 50.4735 235.817 50.714C236.192 50.9546 236.634 51.0759 237.144 51.0759C237.49 51.0759 237.795 51.0202 238.057 50.9109C238.32 50.7995 238.543 50.6524 238.722 50.4695C238.902 50.2866 239.035 50.0858 239.125 49.8691L239.983 50.1415C239.867 50.4516 239.682 50.7399 239.427 51.0043C239.172 51.2707 238.852 51.4834 238.466 51.6444C238.079 51.8055 237.637 51.887 237.136 51.887L237.138 51.885Z" fill="#6366F1"/>
<path d="M244.933 51.7259L242.094 44.3047H243.077L244.794 48.9706C244.949 49.3861 245.086 49.8035 245.206 50.219C245.325 50.6345 245.453 51.0401 245.584 51.4337H245.265C245.393 51.0401 245.518 50.6345 245.638 50.219C245.757 49.8035 245.895 49.3881 246.05 48.9706L247.766 44.3047H248.744L245.905 51.7259H244.933Z" fill="#6366F1"/>
</svg>
