<?xml version="1.0" encoding="UTF-8"?>
<svg id="Camada_2" data-name="Camada 2" xmlns="http://www.w3.org/2000/svg" viewBox="0 0 383.19 367.24">
  <defs>
    <style>
      .cls-1 {
        fill: #22c8e5;
        stroke-width: 0px;
      }
    </style>
  </defs>
  <g id="Camada_1-2" data-name="Camada 1">
    <path class="cls-1" d="m383.19,199.29c-.97,7.14-1.56,14.35-2.98,21.4-13.68,67.98-53.3,114.67-116.73,141.67-3.66,1.56-7.44,2.87-11.25,4.02-8.16,2.46-13.65-1.6-13.65-10.03,0-14.72-.04-29.44.17-44.16.21-14.87-1.14-29.19-11.99-40.17,10.69-2.5,21.52-4.33,31.9-7.61,32.84-10.38,49.55-34.1,53.27-67.45,1.12-10.08,1.05-20.44.16-30.55-1.22-13.77-7.48-25.73-16.47-36.18-1.48-1.72-1.73-3.09-1.05-5.3,4.6-15.13,3.12-30.03-2.04-44.77-1.06-3.03-3.5-2.85-5.45-2.45-7.16,1.47-14.57,2.53-21.25,5.29-8.35,3.44-16.03,8.5-24.11,12.65-1.58.81-3.8,1.29-5.47.88-30.01-7.38-59.97-7.33-89.98,0-1.74.43-4.17-.18-5.75-1.16-11.84-7.25-23.87-13.99-37.66-16.87-11.32-2.36-12.59-1.61-15.36,9.4-3.2,12.71-3.53,25.37.68,37.97.34,1.01.05,2.74-.64,3.52-15.98,17.99-19.93,39.34-17.68,62.47,1.19,12.24,3.68,24.14,9.12,35.26,9.65,19.72,25.81,31.7,46.36,37.89,9.85,2.97,20.07,4.7,30.11,6.99-1.6,2.24-3.96,4.72-5.31,7.66-2.06,4.48-3.38,9.31-5.12,13.94-.49,1.29-1.09,3.14-2.11,3.53-14.78,5.77-29.52,7.22-42.86-3.25-4.59-3.6-8.21-8.65-11.62-13.49-6.9-9.78-15.31-17.09-27.61-18.61-2.4-.3-4.99.04-7.36.62-3.04.75-3.66,2.91-1.56,5.33,1.53,1.77,3.34,3.43,5.34,4.63,9.96,5.97,16.76,14.76,20.68,25.33,8.8,23.7,30.64,32.05,53.26,29.95,4.08-.38,8.14-1.06,12.77-1.67,0,6.67-.01,13.25,0,19.84,0,3.24.1,6.49.12,9.73.05,9.61-5.78,13.76-15.03,10.61-24.38-8.29-46.32-20.86-65.54-38-33.1-29.52-54.28-66.04-60.96-109.9C-7.16,154.8,11.06,99.62,56.86,54.64,97.68,14.57,147.71-3.02,204.67.42c83.83,5.07,154.03,64.18,173.56,145.53,2.11,8.81,2.88,17.94,4.28,26.92.21,1.33.45,2.64.68,3.97v22.46Z"/>
  </g>
</svg>