<?xml version="1.0" encoding="UTF-8"?>
<svg id="Camada_2" data-name="Camada 2" xmlns="http://www.w3.org/2000/svg" viewBox="0 0 512 512">
  <defs>
    <style>
      .cls-1 {
        fill: #6465f7;
        stroke-width: 0px;
      }
    </style>
  </defs>
  <g id="Camada_1-2" data-name="Camada 1">
    <g>
      <path class="cls-1" d="m508.12,211.87C491.41,112.1,413.85,29.57,315.25,7.03c-12.93-2.96-26.26-4.17-39.4-6.21-1.3-.2-2.57-.55-3.85-.83h-32c-9.54,1.3-19.12,2.38-28.62,3.94C109.15,20.76,24.02,104.05,4.96,206c-2.1,11.25-3.33,22.66-4.96,34v32c1.32,9.71,2.43,19.45,4,29.11,16.2,99.79,98.37,185.08,197.62,204.94,11.56,2.31,23.35,3.44,35.04,5.15,1.13.16,2.23.53,3.34.8h32c9.54-1.31,19.1-2.41,28.6-3.95,99.91-16.2,184.77-97.4,205.3-196.66,2.42-11.7,3.52-23.68,5.26-35.52.19-1.3.55-2.58.84-3.87v-32c-1.28-9.38-2.32-18.8-3.88-28.13Zm-252.47,268.13c-123.42-.31-223.73-100.83-223.65-224.09.09-123.54,100.94-224.2,224.34-223.9,123.46.3,223.74,100.77,223.65,224.09-.08,123.54-100.96,224.22-224.34,223.91Z"/>
      <path class="cls-1" d="m360.26,129.91c-51.75,20.67-103.45,41.44-155.25,61.99-6.54,2.6-10.59,6.7-13.17,13.23-13.68,34.66-27.64,69.22-41.48,103.82-6.99,17.45-14.06,34.88-20.88,52.39-4.43,11.37,3.02,22.72,15.82,22.62,1.04-.28,3.37-.65,5.5-1.5,52.84-21.09,105.67-42.23,158.5-63.36,4.76-1.9,7.96-5.21,9.87-9.98,21.04-52.68,42.17-105.32,63.08-158.05,1.28-3.22,1.82-7.29,1.14-10.64-2.11-10.4-12.29-14.85-23.13-10.53Zm-187.53,209.39c13.83-34.59,27.29-68.26,40.47-101.24,20.16,20.15,40.34,40.32,60.76,60.73-32.83,13.14-66.45,26.59-101.23,40.51Zm125.97-65.14c-20.26-20.27-40.42-40.44-60.82-60.85,33.07-13.23,66.66-26.66,101.36-40.54-13.84,34.61-27.29,68.26-40.54,101.39Z"/>
    </g>
  </g>
</svg>