<?xml version="1.0" encoding="UTF-8"?>
<svg id="Camada_2" data-name="Camada 2" xmlns="http://www.w3.org/2000/svg" viewBox="0 0 368.24 512">
  <defs>
    <style>
      .cls-1 {
        fill: #22c8e5;
        stroke-width: 0px;
      }
    </style>
  </defs>
  <g id="Camada_1-2" data-name="Camada 1">
    <g>
      <path class="cls-1" d="m353.01,480.05c-1.66-.11-3.33-.04-5-.04-91.5,0-182.99.02-274.49-.02-24.01-.01-41.98-17.94-41.47-41.15.45-20.52,17.27-37.79,37.79-38.76,2.16-.1,4.33-.07,6.5-.07,91.16,0,182.33-.14,273.49.19,10.23.04,18.44-7.55,18.41-18.59-.31-120.32-.27-240.64-.06-360.96.02-9.82-3.05-16.72-12.14-20.64H58.03c-3.36.84-6.75,1.58-10.07,2.55C19.4,10.87.07,36.29.05,66.03c-.07,125.1-.08,250.21,0,375.31.02,33.85,26.23,64.17,59.65,69.62,1.46.24,2.88.69,4.31,1.04h292.02c1.29-.7,2.59-1.38,3.86-2.11,6.18-3.57,9.38-10.83,7.72-17.49-1.73-6.92-7.55-11.88-14.62-12.35ZM104.25,32.27h231.4v335.38H104.25V32.27Zm-72.22,35.92c0-23.07,16.26-37.87,39.66-35.88v335.59c-14.19.32-27.07,4.23-39.41,11.98-.1-2.18-.25-3.75-.25-5.32-.01-102.12-.02-204.24,0-306.36Z"/>
      <path class="cls-1" d="m348.8,424.01c-91.16-.02-182.32-.01-273.48-.01-1.5,0-3.01-.1-4.5.07-6.73.77-11.49,4.23-13.82,10.64-3.94,10.88,4.1,21.26,16.51,21.27,46.16.04,92.33.01,138.49.02,38.5,0,77,0,115.49,0,8.33,0,16.67.15,25-.06,8.32-.22,14.93-6.72,15.51-14.78.56-7.88-4.89-15.18-12.74-16.78-2.09-.43-4.31-.35-6.47-.35Z"/>
    </g>
  </g>
</svg>