<?xml version="1.0" encoding="UTF-8"?>
<svg id="Camada_2" data-name="Camada 2" xmlns="http://www.w3.org/2000/svg" viewBox="0 0 512 512">
  <defs>
    <style>
      .cls-1 {
        fill: #d8b15a;
        stroke-width: 0px;
      }
    </style>
  </defs>
  <g id="Camada_1-2" data-name="Camada 1">
    <path class="cls-1" d="m240,0c10.67,0,21.33,0,32,0,1.45.29,2.89.63,4.35.86,12.97,2.03,26.13,3.25,38.9,6.17,98.62,22.58,176.16,105.07,192.87,204.84,1.56,9.33,2.6,18.75,3.88,28.13v31c-.28,1.29-.73,2.56-.81,3.86-1.77,26.11-7.2,51.47-17.39,75.53-36.77,86.85-101.63,139.49-194.21,157.72-9.42,1.86-19.06,2.62-28.6,3.89h-30c-6.25-.73-12.53-1.32-18.76-2.21-53.03-7.61-99.79-28.86-139.25-65.24C40.2,405.1,13.81,356.48,3.8,299.09c-1.62-9.3-2.55-18.73-3.8-28.09,0-10.33,0-20.67,0-31,1.63-11.34,2.86-22.75,4.96-34C24.02,104.05,109.15,20.76,211.38,3.94,220.88,2.38,230.46,1.3,240,0Zm192.42,393.71c71.95-91.59,63.56-229.96-34.42-310.69C300.99,3.08,157.83,18.8,80.29,117.31c-74.45,94.58-53.19,214.39-.64,275.52,6.49-75.83,45.2-128.37,114.93-158.43-47.64-39.68-42.55-107.55-5.72-143.03,35.96-34.64,92.54-36.69,129.94-3.88,19.4,17.01,30.69,38.49,32.76,64.2,2.69,33.3-9.72,60.74-34.43,82.55,70.11,30.32,108.77,82.89,115.28,159.48Zm-176.21,86.38c50.71-.66,96.44-16.03,136.75-47.01,2.24-1.72,4.14-4.88,4.66-7.66,2.76-14.66,3.15-29.46,1.14-44.27-10.91-80.19-85.27-135.64-165.3-123.29-79.1,12.21-133.86,89.29-119.09,167.86.49,2.63,2.36,5.61,4.49,7.24,40.46,31.07,86.33,46.5,137.34,47.13Zm.06-384.08c-35.2-.1-64.13,28.53-64.27,63.59-.14,35.23,28.42,64.2,63.47,64.4,35.45.2,64.45-28.5,64.52-63.85.07-35.17-28.61-64.04-63.72-64.14Z"/>
  </g>
</svg>