<?xml version="1.0" encoding="UTF-8"?>
<svg id="Camada_2" data-name="Camada 2" xmlns="http://www.w3.org/2000/svg" viewBox="0 0 384 384">
  <defs>
    <style>
      .cls-1 {
        fill: #e4252a;
      }

      .cls-1, .cls-2, .cls-3, .cls-4, .cls-5, .cls-6 {
        stroke-width: 0px;
      }

      .cls-2 {
        fill: #e4272c;
      }

      .cls-3 {
        fill: #fefdfd;
      }

      .cls-4 {
        fill: #fefbfb;
      }

      .cls-5 {
        fill: #fefcfc;
      }

      .cls-6 {
        fill: #ec676a;
      }
    </style>
  </defs>
  <g id="Camada_1-2" data-name="Camada 1">
    <path class="cls-1" d="m91.36.07h135.44c.02,35.88.09,71.77,0,107.65,0,3.56.95,4.68,4.6,4.66,34.39-.13,68.78-.08,103.17-.09,1.76,1.31,1.02,3.22,1.02,4.86.04,71.08.03,142.15.03,213.23,0,2.12-.05,4.24-.17,6.35-1.57,25.69-22.95,46.3-48.74,46.37-62.85.16-125.69.07-188.54.03-9.18,0-17.76-2.52-25.46-7.51-16.04-10.41-23.59-25.33-23.57-44.41.06-93.02.03-186.04.03-279.07,0-1.74.03-3.49.13-5.23,1.26-21.37,15.95-39.48,36.55-45.14,1.86-.51,3.93-.35,5.53-1.71Zm74.6,251.04c0,10.59-.01,21.19.02,31.78,0,1.36-.59,3.12,1.97,3.03,10.08-.35,20.21.8,30.24-.68,18.19-2.68,28.77-14.94,29.21-33.54.44-18.35-9.52-31.16-27.32-34.73-10.6-2.12-21.38-.75-32.07-1.09-2.45-.08-2.03,1.64-2.03,3.07-.01,10.72,0,21.44,0,32.16Zm-61.37-.39c0,10.72.07,21.43-.05,32.15-.03,2.42.63,3.23,3.11,3.1,3.98-.21,7.98-.19,11.96,0,2.35.11,2.98-.69,2.92-2.96-.14-5.98.12-11.97-.11-17.94-.12-3.25.58-4.76,4.22-4.42,3.45.32,6.97.1,10.45-.09,12.72-.69,21.25-9.37,21.48-21.77.24-12.59-8.02-21.81-20.98-22.53-10.19-.56-20.42-.21-30.64-.41-2.57-.05-2.38,1.42-2.38,3.11.02,10.59,0,21.18,0,31.77Zm131.83.07c0,10.72.05,21.44-.04,32.16-.02,2.13.31,3.15,2.8,3.02,4.1-.22,8.23-.2,12.33,0,2.4.11,2.91-.78,2.88-3-.12-7.6.02-15.21-.09-22.81-.03-2.1.59-2.77,2.71-2.73,6.6.13,13.21-.03,19.82.09,2.16.04,3.2-.37,3.03-2.83-.21-3.1-.18-6.24,0-9.34.13-2.26-.56-3.06-2.9-2.99-5.11.16-10.22.05-15.33.05-7.31,0-7.18,0-7.34-7.5-.06-2.83.56-3.84,3.62-3.76,8.47.23,16.95.02,25.42.12,2.05.02,2.92-.48,2.81-2.68-.16-3.11-.19-6.24,0-9.34.16-2.54-.58-3.44-3.28-3.42-14.46.13-28.92.11-43.37,0-2.47-.02-3.15.73-3.12,3.17.13,10.59.05,21.19.05,31.78Z"/>
    <path class="cls-3" d="m91.36.07c-1.6,1.36-3.67,1.2-5.53,1.71-20.6,5.66-35.29,23.77-36.55,45.14-.1,1.74-.13,3.49-.13,5.23,0,93.02.03,186.05-.03,279.07-.01,19.08,7.54,34,23.57,44.41,7.7,5,16.28,7.51,25.46,7.51,62.85.05,125.69.13,188.54-.03,25.78-.06,47.16-20.68,48.74-46.37.13-2.11.17-4.24.17-6.35,0-71.08.01-142.15-.03-213.23,0-1.64.74-3.54-1.02-4.86-.56-.66-1.08-1.36-1.68-1.98-26.99-28.16-54.01-56.29-80.98-84.47-8.17-8.54-16.24-17.19-24.35-25.79,51.13,0,102.26.02,153.39-.07,2.56,0,3.07.5,3.06,3.07-.08,125.96-.08,251.91,0,377.87,0,2.56-.5,3.07-3.06,3.06-126.96-.08-253.91-.07-380.87-.07C.07,257.1.08,130.27,0,3.44,0,.64.63-.01,3.44,0c29.31.12,58.61.07,87.92.07Z"/>
    <path class="cls-6" d="m227.54.07c8.11,8.6,16.17,17.25,24.35,25.79,26.97,28.17,53.99,56.31,80.98,84.47.6.62,1.12,1.32,1.68,1.98-34.39,0-68.78-.05-103.17.09-3.65.01-4.61-1.11-4.6-4.66.1-35.88.03-71.77,0-107.65.25,0,.5,0,.75,0Z"/>
    <path class="cls-5" d="m165.96,251.12c0-10.72,0-21.44,0-32.16,0-1.43-.41-3.15,2.03-3.07,10.69.34,21.47-1.03,32.07,1.09,17.81,3.56,27.76,16.38,27.32,34.73-.44,18.61-11.03,30.86-29.21,33.54-10.03,1.48-20.16.33-30.24.68-2.56.09-1.96-1.67-1.97-3.03-.03-10.59-.02-21.19-.02-31.78Zm17.45-.12c0,3.73,0,7.46,0,11.19q0,9.45,9.49,8.18c10.88-1.47,16.55-8.06,16.6-19.29.05-11.22-5.59-18.07-16.3-19.61-2.2-.32-4.48-.05-6.7-.27-2.37-.23-3.24.5-3.15,3.03.2,5.59.06,11.19.06,16.78Z"/>
    <path class="cls-4" d="m104.58,250.73c0-10.59,0-21.18,0-31.77,0-1.69-.19-3.16,2.38-3.11,10.21.2,20.45-.16,30.64.41,12.97.72,21.23,9.94,20.98,22.53-.24,12.4-8.76,21.08-21.48,21.77-3.48.19-7,.41-10.45.09-3.65-.33-4.35,1.17-4.22,4.42.23,5.97-.03,11.96.11,17.94.05,2.27-.58,3.07-2.92,2.96-3.98-.19-7.98-.21-11.96,0-2.48.13-3.14-.67-3.11-3.1.12-10.71.05-21.43.05-32.15Zm17.9-12.67c0,1.87.03,3.74,0,5.6-.02,1.18.32,1.87,1.67,1.84,3.48-.08,7,.16,10.45-.21,3.95-.43,6.24-3.4,6.12-7.2-.11-3.75-2.63-6.39-6.61-6.78-1.61-.16-3.23-.08-4.85-.09q-6.78,0-6.77,6.83Z"/>
    <path class="cls-4" d="m236.41,250.79c0-10.59.07-21.19-.05-31.78-.03-2.44.65-3.19,3.12-3.17,14.46.1,28.92.12,43.37,0,2.7-.02,3.44.88,3.28,3.42-.19,3.1-.17,6.24,0,9.34.12,2.2-.76,2.71-2.81,2.68-8.47-.1-16.95.11-25.42-.12-3.06-.08-3.68.93-3.62,3.76.16,7.49.03,7.5,7.34,7.5,5.11,0,10.22.11,15.33-.05,2.34-.07,3.03.73,2.9,2.99-.17,3.11-.21,6.24,0,9.34.17,2.46-.87,2.87-3.03,2.83-6.6-.12-13.21.04-19.82-.09-2.13-.04-2.75.62-2.71,2.73.11,7.6-.03,15.21.09,22.81.04,2.22-.47,3.11-2.88,3-4.1-.19-8.23-.21-12.33,0-2.49.13-2.82-.89-2.8-3.02.09-10.72.04-21.44.04-32.16Z"/>
    <path class="cls-2" d="m183.41,251c0-5.59.13-11.19-.06-16.78-.09-2.53.78-3.26,3.15-3.03,2.22.22,4.5-.04,6.7.27,10.71,1.54,16.35,8.38,16.3,19.61-.05,11.23-5.72,17.83-16.6,19.29q-9.49,1.28-9.49-8.18c0-3.73,0-7.46,0-11.19Z"/>
    <path class="cls-2" d="m122.48,238.06q-.01-6.83,6.77-6.83c1.62,0,3.25-.07,4.85.09,3.98.39,6.49,3.02,6.61,6.78.12,3.8-2.17,6.77-6.12,7.2-3.45.37-6.96.13-10.45.21-1.35.03-1.69-.67-1.67-1.84.03-1.87,0-3.74,0-5.6Z"/>
  </g>
</svg>