<?xml version="1.0" encoding="utf-8"?>
<!-- Generator: Adobe Illustrator 27.9.6, SVG Export Plug-In . SVG Version: 9.03 Build 54986)  -->
<svg version="1.1" id="Camada_1" xmlns="http://www.w3.org/2000/svg" xmlns:xlink="http://www.w3.org/1999/xlink" x="0px" y="0px"
	 viewBox="0 0 48 46" style="enable-background:new 0 0 48 46;" xml:space="preserve">
<style type="text/css">
	.st0{fill:#6366F1;}
	.st1{fill:#22D3EE;}
</style>
<g>
	<g>
		<path class="st0" d="M24,40.5C24,40.5,24,40.5,24,40.5c-9.2,0-16.7-7.5-16.7-16.7c0-4.5,1.8-8.6,4.9-11.8
			c3.1-3.1,7.3-4.9,11.8-4.9c0,0,0,0,0,0c0.3,0,0.5,0.2,0.5,0.6c0,0.3-0.2,0.5-0.5,0.5c0,0,0,0,0,0c-4.1,0-8,1.6-11,4.5
			c-2.9,2.9-4.6,6.8-4.6,11c0,8.6,6.9,15.6,15.5,15.6c0,0,0,0,0,0c4.1,0,8-1.6,11-4.5c2.9-2.9,4.6-6.8,4.6-11c0-2.7-0.7-5.4-2.1-7.8
			c-0.2-0.3-0.1-0.6,0.2-0.8c0.3-0.2,0.6-0.1,0.8,0.2c1.5,2.5,2.2,5.4,2.2,8.4c0,4.5-1.8,8.6-4.9,11.8C32.6,38.8,28.4,40.5,24,40.5z
			"/>
	</g>
	<circle class="st1" cx="24" cy="7.7" r="2.2"/>
	<path class="st0" d="M23.8,15.8l-6.1,15.7c-0.1,0.2,0.2,0.4,0.4,0.3l5.8-3.8c0.1-0.1,0.2-0.1,0.3,0l5.8,3.8
		c0.2,0.1,0.5-0.1,0.4-0.3l-6.1-15.7C24.2,15.7,23.9,15.7,23.8,15.8z M24.5,18.7l4.3,11c0.1,0.1-0.1,0.3-0.2,0.2l-4-2.6
		c-0.2-0.1-0.2-0.3-0.2-0.5l0-8C24.3,18.6,24.5,18.6,24.5,18.7z"/>
</g>
</svg>
